<svg version="1.1" xmlns="http://www.w3.org/2000/svg" viewBox="0 0 235.3 235.3">
<path fill="var(--bee-color)" d="m204.7 118.1c-8-10.5-20.1-22.5-30.9-26.6-2.4-22.9-18.7-41.8-40.2-48.1l30.6-30.6c2.9-2.9 2.9-7.7 0-10.6-2.9-2.9-7.7-2.9-10.6 0l-35.8 35.8-35.5-35.5c-2.9-2.9-7.7-2.9-10.6 0-2.9 2.9-2.9 7.7 0 10.6l30.3 30.3c-21.5 6.3-37.7 25.1-40.2 48-10.9 4.1-23.1 16.1-31.1 26.7-8.5 11.1-22.8 33.8-22.8 60 0 18.9 15.4 34.3 34.3 34.3 17 0 31.1-12.4 33.8-28.5 8.7 9.7 20.7 16.3 34.3 18.1v25.9c0 4.1 3.4 7.5 7.5 7.5 4.1 0 7.5-3.4 7.5-7.5v-25.9c13.5-1.8 25.5-8.4 34.3-18.1 2.7 16.2 16.9 28.5 33.8 28.5 18.9 0 34.3-15.4 34.3-34.3 0-26.3-14.3-48.9-22.8-60zm-45.8-3.8h-82.5v-9.4h82.5v9.4zm-82.5 15h82.5v9.4h-82.5v-9.4zm41.4-73.2c20.2 0 37.1 14.6 40.7 33.9h-81.3c3.5-19.2 20.4-33.9 40.7-33.9zm-56.4 122c0 10.6-8.7 19.3-19.3 19.3-10.6 0-19.3-8.7-19.3-19.3 0-31.2 24.7-59.9 38.6-69.7v37.7 31.9zm56.3 9.4c-20.2 0-37-14.6-40.6-33.8h81.1c-3.5 19.2-20.4 33.8-40.6 33.8zm75.6 9.9c-10.6 0-19.3-8.7-19.3-19.3v-31.9-37.7c13.9 9.7 38.6 38.4 38.6 69.7 0 10.6-8.7 19.3-19.3 19.3z"/>
</svg>